<svg width="56" height="55" viewBox="0 0 56 55" fill="none" xmlns="http://www.w3.org/2000/svg">
<path d="M27.7008 54.3965C42.852 54.3965 55.1347 42.748 55.1347 28.379C55.1347 14.0099 42.852 2.36152 27.7008 2.36152C12.5494 2.36152 0.266786 14.0099 0.266786 28.379C0.266786 42.748 12.5494 54.3965 27.7008 54.3965Z" fill="#FFE900"/>
<path d="M27.7004 54.4671C22.2367 54.485 16.8902 52.969 12.338 50.1112C7.7858 47.2532 4.23275 43.1821 2.12876 38.4131C0.0247803 33.6442 -0.535497 28.3921 0.518885 23.3218C1.57328 18.2515 4.19488 13.5912 8.05173 9.93097C11.9086 6.27077 16.8272 3.77531 22.1847 2.76063C27.5423 1.74595 33.0976 2.25768 38.1473 4.23103C43.197 6.20437 47.514 9.55056 50.5516 13.8458C53.5891 18.1411 55.2106 23.1923 55.2106 28.3597C55.2108 35.2682 52.3153 41.8953 47.1588 46.7887C42.0026 51.6824 35.0054 54.4435 27.7004 54.4671ZM27.7004 4.37682C22.6758 4.36256 17.7595 5.75881 13.5744 8.38877C9.38922 11.0187 6.12343 14.7641 4.19051 19.1505C2.25759 23.537 1.74451 28.3673 2.71625 33.0299C3.68798 37.6923 6.10081 41.9771 9.6492 45.3418C13.1976 48.7066 17.7219 50.9997 22.6494 51.9309C27.5767 52.8623 32.6855 52.3898 37.3286 50.5732C41.9718 48.7567 45.9406 45.6779 48.7325 41.7269C51.5243 37.7756 53.0136 33.1299 53.0117 28.3777C53.0117 22.0232 50.3473 15.928 45.6023 11.4288C40.8574 6.92951 34.4195 4.39349 27.7004 4.37682Z" fill="#C4B306"/>
<path d="M27.7006 54.9005C21.0815 54.9154 14.6719 52.7059 9.61567 48.666C4.55939 44.626 1.18526 39.0187 0.0952488 32.8441C0.0873491 32.7754 0.093919 32.7061 0.11458 32.6398C0.135242 32.5736 0.169582 32.512 0.215615 32.4583C0.26165 32.4048 0.318463 32.3603 0.382767 32.3277C0.447069 32.2949 0.517589 32.2746 0.590241 32.2679C0.661044 32.255 0.733875 32.256 0.804323 32.2705C0.874772 32.285 0.941376 32.3128 1.00011 32.3523C1.05884 32.392 1.10847 32.4423 1.14601 32.5006C1.18355 32.5587 1.20821 32.6236 1.2185 32.691C2.32603 38.7386 5.70396 44.2052 10.7316 48.086C15.7592 51.967 22.099 54.0017 28.5858 53.8163C35.0725 53.631 41.2705 51.2378 46.0413 47.077C50.812 42.9159 53.8347 37.2666 54.5542 31.1668C55.2734 25.067 53.6411 18.9266 49.9572 13.8737C46.2731 8.82088 40.7847 5.19511 34.5005 3.66258C28.2164 2.13004 21.5584 2.79372 15.7503 5.53164C9.942 8.26956 5.37357 12.8978 2.88435 18.566C2.82206 18.684 2.71485 18.7755 2.58426 18.8217C2.45365 18.8681 2.30935 18.866 2.18035 18.8157C2.05134 18.7656 1.9472 18.6711 1.88885 18.5513C1.8305 18.4315 1.82227 18.2952 1.8658 18.1699C3.82525 13.752 7.01508 9.91946 11.0955 7.08048C15.176 4.24152 19.9942 2.5024 25.037 2.04842C30.08 1.59442 35.1586 2.44252 39.7322 4.50241C44.3057 6.56229 48.2027 9.75681 51.0084 13.7457C53.8141 17.7346 55.4231 22.3685 55.6643 27.154C55.9054 31.9394 54.7697 36.697 52.3779 40.9201C49.9862 45.1434 46.428 48.674 42.0822 51.1359C37.7366 53.5978 32.7663 54.8988 27.7006 54.9005Z" fill="#3E3126"/>
<path d="M27.7004 49.4453C23.292 49.4578 18.9789 48.2328 15.3071 45.9257C11.6353 43.6185 8.76997 40.3329 7.07385 36.4846C5.3777 32.6364 4.92707 28.3988 5.77901 24.3083C6.63093 20.2177 8.74712 16.4582 11.8596 13.5057C14.9721 10.5533 18.9409 8.54067 23.2636 7.72271C27.5862 6.90475 32.0683 7.31823 36.1424 8.91081C40.2164 10.5034 43.6991 13.2034 46.1498 16.6691C48.6003 20.1348 49.9083 24.2101 49.9083 28.3792C49.9083 33.9555 47.5708 39.3041 43.4078 43.2529C39.245 47.2018 33.5964 49.4286 27.7004 49.4453ZM27.7004 9.40181C23.7258 9.38577 19.8355 10.4859 16.5227 12.5628C13.2098 14.6396 10.6233 17.5998 9.09092 21.0682C7.55856 24.5366 7.14932 28.3572 7.91501 32.0458C8.68071 35.7344 10.5869 39.1249 13.392 41.788C16.1972 44.4511 19.7752 46.2667 23.6724 47.0048C27.5696 47.743 31.6109 47.3706 35.2839 45.9345C38.9572 44.4984 42.0969 42.0637 44.3057 38.9384C46.5143 35.8132 47.6923 32.1382 47.6903 28.3792C47.6905 23.3585 45.5868 18.5425 41.8401 14.9856C38.0933 11.4287 33.009 9.42085 27.7004 9.40181Z" fill="#F8A547"/>
<path d="M12.3653 43.5382C12.3074 43.5393 12.2498 43.5296 12.1959 43.5095C12.1419 43.4894 12.0928 43.4594 12.0512 43.4212C9.39062 40.9274 7.43445 37.8421 6.36199 34.4477C5.28953 31.0535 5.13508 27.4588 5.91281 23.9935C6.69057 20.5281 8.3756 17.3028 10.8135 14.6132C13.2514 11.9236 16.3641 9.8557 19.8664 8.59913C19.9726 8.56979 20.0866 8.57959 20.1855 8.62655C20.2844 8.6735 20.3608 8.75414 20.3995 8.85223C20.4381 8.95032 20.4359 9.05859 20.3935 9.15528C20.3512 9.25196 20.2716 9.32987 20.1709 9.37334C16.804 10.5795 13.8114 12.5662 11.4677 15.1511C9.12412 17.736 7.50463 20.8363 6.75794 24.1673C6.01125 27.4983 6.16129 30.9535 7.19427 34.2154C8.22726 37.4773 10.1101 40.4415 12.6699 42.836C12.7519 42.9137 12.798 43.0189 12.798 43.1285C12.798 43.2382 12.7519 43.3435 12.6699 43.4212C12.6298 43.4586 12.5823 43.4882 12.53 43.5084C12.4777 43.5285 12.4218 43.5385 12.3653 43.5382Z" fill="#3E3126"/>
<path d="M27.7004 49.4986C23.648 49.5057 19.6712 48.4625 16.2013 46.4828C16.1017 46.4265 16.0297 46.3352 16.0011 46.2289C15.9726 46.1227 15.9898 46.0099 16.049 45.9155C16.1102 45.8207 16.2084 45.7525 16.3224 45.7255C16.4364 45.6984 16.557 45.715 16.6583 45.7715C19.4921 47.3762 22.6795 48.3401 25.9722 48.5883C29.2646 48.8363 32.5732 48.3619 35.6399 47.2018C38.7068 46.0418 41.4488 44.2273 43.6522 41.9003C45.8557 39.5733 47.4608 36.7963 48.343 33.7859C49.225 30.7757 49.3599 27.6135 48.7374 24.5457C48.1147 21.4779 46.751 18.5877 44.7531 16.1002C42.7551 13.6128 40.1766 11.5954 37.2187 10.2054C34.2607 8.81542 31.0033 8.09032 27.7004 8.08668C26.5557 8.08789 25.4131 8.17518 24.2831 8.34776C24.2262 8.35676 24.1679 8.35504 24.1117 8.34271C24.0556 8.33038 24.0026 8.30765 23.9557 8.27586C23.9088 8.24408 23.869 8.20384 23.8385 8.15746C23.8081 8.11109 23.7878 8.0595 23.7786 8.00566C23.7689 7.95185 23.7709 7.8968 23.7839 7.84364C23.7969 7.79051 23.8209 7.74031 23.8546 7.69599C23.8881 7.65165 23.9307 7.61403 23.9797 7.58528C24.0288 7.55656 24.0833 7.53725 24.1403 7.52852C25.3181 7.35592 26.5084 7.26865 27.7004 7.26744C33.5446 7.38155 39.1087 9.6573 43.1991 13.6065C47.2896 17.5557 49.5805 22.8637 49.5805 28.3921C49.5805 33.9203 47.2896 39.2283 43.1991 43.1775C39.1087 47.1267 33.5446 49.4025 27.7004 49.5165V49.4986Z" fill="#3E3126"/>
<path d="M27.7004 49.4453C23.292 49.4578 18.9789 48.2328 15.3071 45.9257C11.6353 43.6185 8.76997 40.3329 7.07385 36.4846C5.3777 32.6364 4.92707 28.3988 5.77901 24.3083C6.63093 20.2177 8.74712 16.4582 11.8596 13.5057C14.9721 10.5533 18.9409 8.54067 23.2636 7.72271C27.5862 6.90475 32.0683 7.31823 36.1424 8.91081C40.2164 10.5034 43.6991 13.2034 46.1498 16.6691C48.6003 20.1348 49.9083 24.2101 49.9083 28.3792C49.9083 33.9555 47.5708 39.3041 43.4078 43.2529C39.245 47.2018 33.5964 49.4286 27.7004 49.4453ZM27.7004 9.40181C23.7258 9.38577 19.8355 10.4859 16.5227 12.5628C13.2098 14.6396 10.6233 17.5998 9.09092 21.0682C7.55856 24.5366 7.14932 28.3572 7.91501 32.0458C8.68071 35.7344 10.5869 39.1249 13.392 41.788C16.1972 44.4511 19.7752 46.2667 23.6724 47.0048C27.5696 47.743 31.6109 47.3706 35.2839 45.9345C38.9572 44.4984 42.0969 42.0637 44.3057 38.9384C46.5143 35.8132 47.6923 32.1382 47.6903 28.3792C47.6905 23.3585 45.5868 18.5425 41.8401 14.9856C38.0933 11.4287 33.009 9.42085 27.7004 9.40181Z" fill="#C4B306"/>
<path d="M12.3653 43.5382C12.3074 43.5393 12.2498 43.5296 12.1959 43.5095C12.1419 43.4894 12.0928 43.4594 12.0512 43.4212C9.39062 40.9274 7.43445 37.8421 6.36199 34.4477C5.28953 31.0535 5.13508 27.4588 5.91281 23.9935C6.69057 20.5281 8.3756 17.3028 10.8135 14.6132C13.2514 11.9236 16.3641 9.8557 19.8664 8.59913C19.9726 8.56979 20.0866 8.57959 20.1855 8.62655C20.2844 8.6735 20.3608 8.75414 20.3995 8.85223C20.4381 8.95032 20.4359 9.05859 20.3935 9.15528C20.3512 9.25196 20.2716 9.32987 20.1709 9.37334C16.804 10.5795 13.8114 12.5662 11.4677 15.1511C9.12412 17.736 7.50463 20.8363 6.75794 24.1673C6.01125 27.4983 6.16129 30.9535 7.19427 34.2154C8.22726 37.4773 10.1101 40.4415 12.6699 42.836C12.7519 42.9137 12.798 43.0189 12.798 43.1285C12.798 43.2382 12.7519 43.3435 12.6699 43.4212C12.6298 43.4586 12.5823 43.4882 12.53 43.5084C12.4777 43.5285 12.4218 43.5385 12.3653 43.5382Z" fill="#3E3126"/>
<path d="M27.7004 49.4986C23.648 49.5057 19.6712 48.4625 16.2013 46.4828C16.1017 46.4265 16.0297 46.3352 16.0011 46.2289C15.9726 46.1227 15.9898 46.0099 16.049 45.9155C16.1102 45.8207 16.2084 45.7525 16.3224 45.7255C16.4364 45.6984 16.557 45.715 16.6583 45.7715C19.4921 47.3762 22.6795 48.3401 25.9722 48.5883C29.2646 48.8363 32.5732 48.3619 35.6399 47.2018C38.7068 46.0418 41.4488 44.2273 43.6522 41.9003C45.8557 39.5733 47.4608 36.7963 48.343 33.7859C49.225 30.7757 49.3599 27.6135 48.7374 24.5457C48.1147 21.4779 46.751 18.5877 44.7531 16.1002C42.7551 13.6128 40.1766 11.5954 37.2187 10.2054C34.2607 8.81542 31.0033 8.09032 27.7004 8.08668C26.5557 8.08789 25.4131 8.17518 24.2831 8.34776C24.2262 8.35676 24.1679 8.35504 24.1117 8.34271C24.0556 8.33038 24.0026 8.30765 23.9557 8.27586C23.9088 8.24408 23.869 8.20384 23.8385 8.15746C23.8081 8.11109 23.7878 8.0595 23.7786 8.00566C23.7689 7.95185 23.7709 7.8968 23.7839 7.84364C23.7969 7.79051 23.8209 7.74031 23.8546 7.69599C23.8881 7.65165 23.9307 7.61403 23.9797 7.58528C24.0288 7.55656 24.0833 7.53725 24.1403 7.52852C25.3181 7.35592 26.5084 7.26865 27.7004 7.26744C33.5446 7.38155 39.1087 9.6573 43.1991 13.6065C47.2896 17.5557 49.5805 22.8637 49.5805 28.3921C49.5805 33.9203 47.2896 39.2283 43.1991 43.1775C39.1087 47.1267 33.5446 49.4025 27.7004 49.5165V49.4986Z" fill="#3E3126"/>
<path d="M32.4507 52.6499C32.6347 52.6499 32.7838 52.5088 32.7838 52.3348C32.7838 52.1608 32.6347 52.0198 32.4507 52.0198C32.2667 52.0198 32.1176 52.1608 32.1176 52.3348C32.1176 52.5088 32.2667 52.6499 32.4507 52.6499Z" fill="#F8A547"/>
<path d="M33.5643 49.2817C33.6274 49.2817 33.6786 49.2335 33.6786 49.1737C33.6786 49.1141 33.6274 49.0658 33.5643 49.0658C33.5013 49.0658 33.4501 49.1141 33.4501 49.1737C33.4501 49.2335 33.5013 49.2817 33.5643 49.2817Z" fill="#F8A547"/>
<path d="M34.3828 30.5903C34.0808 29.9561 33.6545 29.3818 33.1262 28.8979C32.6085 28.4357 32.0293 28.0392 31.4032 27.7186C30.8075 27.4328 30.1903 27.1891 29.5566 26.9893C28.7189 26.6832 27.9288 26.3771 27.1959 26.0891C26.5338 25.8316 25.9247 25.4661 25.3967 25.0087C25.1655 24.8011 24.9838 24.549 24.864 24.2696C24.7441 23.9901 24.6889 23.6896 24.7019 23.3883C24.6883 22.9494 24.7967 22.5149 25.0159 22.1279C25.236 21.7704 25.5689 21.487 25.9678 21.3177C26.5153 21.1109 27.1018 21.0127 27.6908 21.0296C28.3121 21.0146 28.9254 21.1643 29.4614 21.4617C29.9673 21.7518 30.41 22.1307 30.7656 22.5781C31.1282 23.0584 31.4468 23.5674 31.7175 24.0995L34.5923 22.4881C34.2241 21.7529 33.743 21.0732 33.1644 20.4715C32.5208 19.8097 31.7484 19.2718 30.8893 18.8869C30.3383 18.6324 29.7518 18.4535 29.1472 18.3558V15.1689H26.2915L26.3583 18.3288C25.6201 18.4253 24.9015 18.6257 24.226 18.923C23.2922 19.3229 22.4825 19.9429 21.8748 20.7235C21.3114 21.4554 21.0111 22.3388 21.018 23.2441C20.9914 24.0808 21.1774 24.9114 21.5606 25.666C21.9033 26.305 22.3718 26.8763 22.9409 27.3495C23.4791 27.802 24.0774 28.1864 24.7208 28.4927C25.2805 28.7554 25.8557 28.987 26.4438 29.1859C27.2434 29.474 27.9955 29.7711 28.7095 30.0862C29.3617 30.3703 29.95 30.7707 30.4419 31.2655C30.9031 31.7615 31.145 32.4061 31.1178 33.066C31.1326 33.5743 31.015 34.0783 30.775 34.5334C30.5394 34.9336 30.1716 35.2498 29.728 35.4337C29.1638 35.6639 28.5523 35.7714 27.9384 35.7487C27.1831 35.7631 26.4363 35.5958 25.7681 35.2626C25.1016 34.9139 24.5159 34.4425 24.0451 33.8763C23.4782 33.1924 22.9959 32.4493 22.6076 31.6616L19.9139 33.3811C20.3473 34.3775 20.9662 35.2923 21.7414 36.0818C22.514 36.8696 23.4378 37.5112 24.4639 37.9725C25.0709 38.2361 25.7106 38.4267 26.3677 38.5396L26.2915 41.5914H29.1472L29.0903 38.6207C29.9685 38.5512 30.828 38.3412 31.6318 37.9995C32.6211 37.569 33.4526 36.8703 34.021 35.9919C34.5942 35.0745 34.8844 34.0235 34.8588 32.958C34.8824 32.1455 34.7201 31.3378 34.3828 30.5903Z" fill="white"/>
<path d="M43.8161 22.914C50.4245 22.914 55.7817 17.8314 55.7817 11.5617C55.7817 5.29207 50.4245 0.20948 43.8161 0.20948C37.2078 0.20948 31.8508 5.29207 31.8508 11.5617C31.8508 17.8314 37.2078 22.914 43.8161 22.914Z" fill="#FFE900"/>
<path d="M43.8165 22.9395C41.4348 22.9485 39.1039 22.2887 37.119 21.0438C35.134 19.7987 33.5844 18.0247 32.6666 15.9462C31.7486 13.8677 31.5035 11.5783 31.9623 9.36802C32.4211 7.1577 33.5633 5.1259 35.2441 3.52998C36.9249 1.93404 39.0689 0.8458 41.4041 0.403067C43.7393 -0.0396643 46.161 0.183039 48.3625 1.04297C50.5638 1.90289 52.4457 3.36137 53.7699 5.23364C55.0942 7.10593 55.8012 9.30776 55.8012 11.5603C55.8012 14.5705 54.54 17.458 52.2938 19.5908C50.0476 21.7235 46.9995 22.9276 43.8165 22.9395ZM43.8165 1.09028C41.6255 1.08315 39.4814 1.69114 37.6558 2.83726C35.8302 3.98338 34.4053 5.61606 33.5616 7.52857C32.7178 9.44107 32.493 11.5474 32.916 13.5807C33.3388 15.6141 34.3901 17.483 35.937 18.9508C37.4836 20.4187 39.4562 21.4194 41.6046 21.8265C43.7533 22.2334 45.9812 22.0281 48.0063 21.2366C50.0315 20.4454 51.7627 19.1034 52.9807 17.3808C54.199 15.6583 54.8493 13.6326 54.8493 11.5603C54.8518 8.78896 53.6913 6.12994 51.623 4.16696C49.5545 2.20395 46.7469 1.09743 43.8165 1.09028Z" fill="#C4B306"/>
<path d="M43.8163 23.1381C40.926 23.142 38.1282 22.1734 35.9238 20.4053C33.7196 18.637 32.2521 16.1849 31.7842 13.4874C31.775 13.4568 31.7726 13.4247 31.7773 13.3932C31.7821 13.3617 31.7939 13.3316 31.8118 13.3047C31.8299 13.2778 31.8538 13.2549 31.8817 13.2373C31.9097 13.2198 31.9414 13.2081 31.9747 13.2029C32.0078 13.1978 32.0417 13.1994 32.0742 13.2076C32.1067 13.2158 32.1371 13.2304 32.1631 13.2505C32.1893 13.2705 32.2105 13.2956 32.2257 13.324C32.2407 13.3524 32.2493 13.3836 32.2507 13.4153C32.7389 16.0587 34.2197 18.4465 36.421 20.1395C38.6223 21.8325 41.396 22.7169 44.2318 22.6301C47.0676 22.543 49.7748 21.4906 51.8557 19.6664C53.9364 17.8421 55.2506 15.3686 55.5567 12.7009C55.8626 10.0332 55.14 7.35068 53.5213 5.14678C51.9028 2.94288 49.4972 1.36581 46.7471 0.705671C43.997 0.0455283 41.0873 0.346705 38.5533 1.5538C36.0193 2.76089 34.0314 4.79274 32.9552 7.27556C32.93 7.33067 32.8831 7.37451 32.8248 7.39797C32.7663 7.42142 32.7005 7.42273 32.641 7.4016C32.5827 7.37772 32.5364 7.33354 32.5116 7.27825C32.4867 7.22295 32.4854 7.16074 32.5078 7.10451C33.363 5.17802 34.7542 3.50675 36.5335 2.26845C38.313 1.03015 40.414 0.271124 42.6133 0.0720994C44.8124 -0.126926 47.0274 0.241492 49.0228 1.13817C51.0184 2.03484 52.7195 3.42626 53.9455 5.16441C55.1714 6.90257 55.8762 8.92247 55.9852 11.0093C56.0939 13.0961 55.6028 15.1718 54.5636 17.0156C53.5245 18.8595 51.9764 20.4025 50.0841 21.4805C48.1917 22.5587 46.0257 23.1314 43.8163 23.1381Z" fill="#3E3126"/>
<path d="M43.8163 20.7448C41.8925 20.7502 40.0101 20.2153 38.4079 19.2083C36.8057 18.2011 35.5556 16.7669 34.8159 15.0873C34.0761 13.4077 33.8801 11.5582 34.2528 9.77322C34.6254 7.98818 35.5497 6.34789 36.9086 5.06007C38.2677 3.77224 40.0003 2.89485 41.8869 2.53901C43.7736 2.18318 45.7296 2.36491 47.5069 3.06117C49.2845 3.75745 50.8033 4.93694 51.8714 6.45026C52.9394 7.96359 53.5085 9.74265 53.5067 11.5621C53.5067 13.9944 52.4865 16.3273 50.6696 18.0489C48.8528 19.7704 46.3882 20.7399 43.8163 20.7448ZM43.8163 3.27975C42.083 3.2744 40.387 3.7556 38.9432 4.66243C37.4992 5.56924 36.3723 6.86091 35.7051 8.37383C35.0379 9.88676 34.8604 11.5529 35.1951 13.1613C35.5298 14.7697 36.3615 16.248 37.5851 17.409C38.8088 18.57 40.3691 19.3616 42.0688 19.6834C43.7683 20.0051 45.5306 19.8427 47.1324 19.2167C48.7344 18.5905 50.1038 17.529 51.0673 16.1664C52.031 14.8037 52.5454 13.2014 52.5454 11.5621C52.5477 9.36945 51.6299 7.26548 49.9931 5.71249C48.3564 4.1595 46.1348 3.28452 43.8163 3.27975Z" fill="#F8A547"/>
<path d="M37.1245 18.1762C37.0742 18.1755 37.0264 18.1561 36.9911 18.1222C36.0782 17.2624 35.3554 16.2393 34.8651 15.1125C34.3748 13.9856 34.1267 12.7777 34.1354 11.5593C34.1399 9.68644 34.7445 7.85888 35.8696 6.31761C36.9945 4.77634 38.587 3.59373 40.437 2.92579C40.4609 2.9172 40.4861 2.91318 40.5115 2.914C40.5369 2.9148 40.5619 2.92039 40.585 2.93047C40.608 2.94053 40.6287 2.95486 40.6458 2.97261C40.663 2.99037 40.6762 3.01118 40.6847 3.03382C40.7004 3.07926 40.6975 3.12868 40.6762 3.17211C40.6549 3.21556 40.6171 3.24977 40.5704 3.26788C39.1022 3.79407 37.7972 4.66049 36.7754 5.78765C35.7534 6.91481 35.0469 8.26664 34.7211 9.71913C34.3951 11.1716 34.4601 12.6782 34.91 14.1008C35.3598 15.5234 36.1803 16.8163 37.2959 17.8611C37.3313 17.8962 37.351 17.943 37.351 17.9916C37.351 18.0402 37.3313 18.087 37.2959 18.1222C37.2742 18.1439 37.2472 18.1602 37.2173 18.1696C37.1873 18.179 37.1554 18.1813 37.1245 18.1762Z" fill="#3E3126"/>
<path d="M43.8165 20.7809C42.0481 20.7805 40.3133 20.3228 38.8 19.4576C38.7781 19.4464 38.7588 19.4309 38.7432 19.4125C38.7279 19.3938 38.7168 19.3726 38.7105 19.3497C38.7042 19.327 38.703 19.3031 38.707 19.2798C38.7109 19.2565 38.7198 19.2344 38.7334 19.2144C38.7462 19.1934 38.7631 19.1749 38.7836 19.1604C38.8041 19.1457 38.8275 19.1351 38.8524 19.1291C38.8774 19.1233 38.9032 19.1222 38.9286 19.1261C38.9538 19.1298 38.9782 19.1384 38.9999 19.1514C40.2369 19.8436 41.6259 20.257 43.0591 20.3595C44.4923 20.462 45.9311 20.2509 47.2642 19.7424C48.5973 19.234 49.7884 18.4421 50.7456 17.4279C51.7026 16.4138 52.3998 15.2048 52.7832 13.8947C53.1663 12.5846 53.2252 11.2086 52.9555 9.87346C52.6856 8.53832 52.0941 7.27992 51.2269 6.19587C50.3597 5.11183 49.2401 4.23127 47.9551 3.62254C46.6699 3.01379 45.2538 2.69322 43.8165 2.68568C43.3162 2.68514 42.8166 2.72126 42.3221 2.79372C42.2778 2.80529 42.2307 2.80059 42.1901 2.78053C42.1493 2.76048 42.1184 2.72657 42.103 2.68568C42.0991 2.662 42.1001 2.63779 42.106 2.61449C42.1121 2.59118 42.1229 2.56923 42.1379 2.54995C42.1531 2.53067 42.172 2.51442 42.1939 2.50216C42.2155 2.48992 42.2398 2.48191 42.265 2.47861C42.7778 2.39872 43.2969 2.35956 43.8165 2.36159C46.4018 2.36159 48.881 3.33283 50.7091 5.06167C52.5371 6.7905 53.5641 9.13529 53.5641 11.5802C53.5641 14.0252 52.5371 16.37 50.7091 18.0988C48.881 19.8276 46.4018 20.7988 43.8165 20.7988V20.7809Z" fill="#3E3126"/>
<path d="M43.8163 20.7448C41.8925 20.7502 40.0101 20.2153 38.4079 19.2083C36.8057 18.2011 35.5556 16.7669 34.8159 15.0873C34.0761 13.4077 33.8801 11.5582 34.2528 9.77322C34.6254 7.98818 35.5497 6.34789 36.9086 5.06007C38.2677 3.77224 40.0003 2.89485 41.8869 2.53901C43.7736 2.18318 45.7296 2.36491 47.5069 3.06117C49.2845 3.75745 50.8033 4.93694 51.8714 6.45026C52.9394 7.96359 53.5085 9.74265 53.5067 11.5621C53.5067 13.9944 52.4865 16.3273 50.6696 18.0489C48.8528 19.7704 46.3882 20.7399 43.8163 20.7448ZM43.8163 3.27975C42.083 3.2744 40.387 3.7556 38.9432 4.66243C37.4992 5.56924 36.3723 6.86091 35.7051 8.37383C35.0379 9.88676 34.8604 11.5529 35.1951 13.1613C35.5298 14.7697 36.3615 16.248 37.5851 17.409C38.8088 18.57 40.3691 19.3616 42.0688 19.6834C43.7683 20.0051 45.5306 19.8427 47.1324 19.2167C48.7344 18.5905 50.1038 17.529 51.0673 16.1664C52.031 14.8037 52.5454 13.2014 52.5454 11.5621C52.5477 9.36945 51.6299 7.26548 49.9931 5.71249C48.3564 4.1595 46.1348 3.28452 43.8163 3.27975Z" fill="#C4B306"/>
<path d="M37.1245 18.1762C37.0742 18.1755 37.0264 18.1561 36.9911 18.1222C36.0782 17.2624 35.3554 16.2393 34.8651 15.1125C34.3748 13.9856 34.1267 12.7777 34.1354 11.5593C34.1399 9.68644 34.7445 7.85888 35.8696 6.31761C36.9945 4.77634 38.587 3.59373 40.437 2.92579C40.4609 2.9172 40.4861 2.91318 40.5115 2.914C40.5369 2.9148 40.5619 2.92039 40.585 2.93047C40.608 2.94053 40.6287 2.95486 40.6458 2.97261C40.663 2.99037 40.6762 3.01118 40.6847 3.03382C40.7004 3.07926 40.6975 3.12868 40.6762 3.17211C40.6549 3.21556 40.6171 3.24977 40.5704 3.26788C39.1022 3.79407 37.7972 4.66049 36.7754 5.78765C35.7534 6.91481 35.0469 8.26664 34.7211 9.71913C34.3951 11.1716 34.4601 12.6782 34.91 14.1008C35.3598 15.5234 36.1803 16.8163 37.2959 17.8611C37.3313 17.8962 37.351 17.943 37.351 17.9916C37.351 18.0402 37.3313 18.087 37.2959 18.1222C37.2742 18.1439 37.2472 18.1602 37.2173 18.1696C37.1873 18.179 37.1554 18.1813 37.1245 18.1762Z" fill="#3E3126"/>
<path d="M43.8165 20.7809C42.0481 20.7805 40.3133 20.3228 38.8 19.4576C38.7781 19.4464 38.7588 19.4309 38.7432 19.4125C38.7279 19.3938 38.7168 19.3726 38.7105 19.3497C38.7042 19.327 38.703 19.3031 38.707 19.2798C38.7109 19.2565 38.7198 19.2344 38.7334 19.2144C38.7462 19.1934 38.7631 19.1749 38.7836 19.1604C38.8041 19.1457 38.8275 19.1351 38.8524 19.1291C38.8774 19.1233 38.9032 19.1222 38.9286 19.1261C38.9538 19.1298 38.9782 19.1384 38.9999 19.1514C40.2369 19.8436 41.6259 20.257 43.0591 20.3595C44.4923 20.462 45.9311 20.2509 47.2642 19.7424C48.5973 19.234 49.7884 18.4421 50.7456 17.4279C51.7026 16.4138 52.3998 15.2048 52.7832 13.8947C53.1663 12.5846 53.2252 11.2086 52.9555 9.87346C52.6856 8.53832 52.0941 7.27992 51.2269 6.19587C50.3597 5.11183 49.2401 4.23127 47.9551 3.62254C46.6699 3.01379 45.2538 2.69322 43.8165 2.68568C43.3162 2.68514 42.8166 2.72126 42.3221 2.79372C42.2778 2.80529 42.2307 2.80059 42.1901 2.78053C42.1493 2.76048 42.1184 2.72657 42.103 2.68568C42.0991 2.662 42.1001 2.63779 42.106 2.61449C42.1121 2.59118 42.1229 2.56923 42.1379 2.54995C42.1531 2.53067 42.172 2.51442 42.1939 2.50216C42.2155 2.48992 42.2398 2.48191 42.265 2.47861C42.7778 2.39872 43.2969 2.35956 43.8165 2.36159C46.4018 2.36159 48.881 3.33283 50.7091 5.06167C52.5371 6.7905 53.5641 9.13529 53.5641 11.5802C53.5641 14.0252 52.5371 16.37 50.7091 18.0988C48.881 19.8276 46.4018 20.7988 43.8165 20.7988V20.7809Z" fill="#3E3126"/>
<path d="M45.8915 22.149C45.9703 22.149 46.0344 22.0886 46.0344 22.0139C46.0344 21.9394 45.9703 21.879 45.8915 21.879C45.8127 21.879 45.7487 21.9394 45.7487 22.0139C45.7487 22.0886 45.8127 22.149 45.8915 22.149Z" fill="#F8A547"/>
<path d="M46.7292 12.5889C46.6013 12.3115 46.4169 12.0607 46.1866 11.8507C45.9617 11.6482 45.7087 11.4756 45.4347 11.3376C45.1754 11.2001 44.9048 11.0827 44.6254 10.9865C44.2637 10.8514 43.9212 10.7254 43.5975 10.5904C43.3077 10.4781 43.0406 10.3198 42.8073 10.1222C42.7086 10.0334 42.631 9.92553 42.5802 9.80594C42.5292 9.68634 42.5061 9.55781 42.5122 9.42901C42.5079 9.23547 42.5538 9.04387 42.6456 8.87086C42.7472 8.71541 42.8968 8.59293 43.0739 8.51976C43.313 8.43013 43.5687 8.38726 43.8258 8.39372C44.0969 8.38528 44.3646 8.45092 44.5969 8.58277C44.8173 8.71011 45.011 8.87494 45.1682 9.06891C45.3326 9.27955 45.479 9.50232 45.6059 9.7351L46.8243 8.98789C46.6669 8.66024 46.4583 8.3568 46.2057 8.08763C45.924 7.79662 45.5842 7.56105 45.2062 7.39443C44.9581 7.28959 44.6952 7.21982 44.4257 7.18738V5.80097H43.2167V7.17836C42.8879 7.21676 42.567 7.30174 42.2648 7.43044C41.8542 7.6085 41.5 7.88465 41.2366 8.23167C40.989 8.54938 40.8586 8.93529 40.8655 9.32999C40.8523 9.69423 40.9341 10.0559 41.1035 10.3833C41.2516 10.6634 41.4551 10.914 41.7031 11.1215C41.9378 11.32 42.2006 11.4866 42.4837 11.6166C42.7275 11.7331 42.9787 11.8354 43.2358 11.9227C43.5784 12.0488 43.9115 12.1748 44.1877 12.3189C44.4741 12.4418 44.7328 12.6161 44.9491 12.832C45.1504 13.0474 45.2562 13.3279 45.2442 13.6152C45.2535 13.8372 45.2011 14.0576 45.0919 14.2544C44.9922 14.4343 44.8313 14.5771 44.6351 14.6595C44.3882 14.7575 44.1219 14.8036 43.8544 14.7946C43.524 14.7999 43.1972 14.7289 42.9025 14.5875C42.6111 14.4329 42.3556 14.2248 42.1505 13.9753C41.9003 13.6797 41.6893 13.3562 41.5223 13.012L40.3324 13.7413C40.5164 14.1819 40.7879 14.5853 41.132 14.9296C41.4685 15.2756 41.8726 15.5569 42.3219 15.7578C42.5879 15.8751 42.8698 15.957 43.1596 16.0009V17.3243H44.3874V16.0279C44.7726 16.0002 45.1496 15.9088 45.5013 15.7578C45.9355 15.5605 46.2993 15.2477 46.5483 14.8576C46.7946 14.456 46.9197 13.9983 46.91 13.5342C46.9191 13.2107 46.8574 12.8889 46.7292 12.5889Z" fill="white"/>
</svg>
