<svg width="128" height="211" viewBox="0 0 128 211" fill="none" xmlns="http://www.w3.org/2000/svg">
<path fill-rule="evenodd" clip-rule="evenodd" d="M50.1459 8.95855C48.4694 15.1801 46.2848 29.1646 48.5141 31.3583H62.618C62.6195 31.3331 62.6209 31.3079 62.6223 31.2829C67.8498 30.7002 71.9156 26.2366 71.9156 20.8165V10.5307C71.9156 4.71477 67.2341 0 61.4592 0H60.4865C55.2421 0 50.8995 3.88831 50.1459 8.95855Z" fill="#DE7800"/>
<path fill-rule="evenodd" clip-rule="evenodd" d="M66.4382 18.8525C68.6793 16.2033 70.196 12.9566 69.9426 9.31869C69.2123 -1.16329 54.7241 1.14261 51.9058 6.43302C49.0875 11.7234 49.4224 25.143 53.0648 26.0885C54.5173 26.4656 57.6117 25.5419 60.7611 23.6301L58.7843 37.7147H70.4565L66.4382 18.8525Z" fill="#EBB786"/>
<path fill-rule="evenodd" clip-rule="evenodd" d="M63.283 17.0817C62.7452 22.8996 62.9607 29.5435 64.5634 31.1206H78.6673C79.4531 17.3701 71.8585 22.6949 71.8585 9.74841C71.385 9.28249 70.9376 8.82133 70.4949 8.42363L70.5106 8.04288C68.0683 3.00749 64.9699 0.489801 61.2153 0.489801C55.5835 0.489801 53.8058 3.12901 52.2923 5.36973C53.4241 9.28084 57.8163 9.86077 61.719 12.2987C62.179 11.9223 62.7656 11.6967 63.4046 11.6967C64.8819 11.6967 66.0794 12.9028 66.0794 14.3906C66.0794 15.8784 64.8819 17.0845 63.4046 17.0845C63.3638 17.0845 63.3233 17.0835 63.283 17.0817Z" fill="#DE7800"/>
<path fill-rule="evenodd" clip-rule="evenodd" d="M28.4438 66.313L10.5738 58.7597C7.41642 55.68 4.37746 53.3519 1.45688 51.7752C0.586777 51.5128 -0.893738 51.4574 0.720299 53.7631C2.33434 56.0689 3.92952 58.5681 3.31147 59.3994C2.69342 60.2307 0.852821 59.3627 0.151566 60.7086C-0.315948 61.6058 2.77956 62.6075 9.43807 63.7135L22.8893 73.7839L28.4438 66.313Z" fill="#EBB786"/>
<path fill-rule="evenodd" clip-rule="evenodd" d="M83.4296 93.9375C82.5526 105.991 26.0593 141.479 25.7297 142.475C25.5832 142.918 31.4447 156.907 43.314 184.442L38.3756 186.375C20.1701 157.213 11.5349 141.078 12.47 137.971C13.8088 133.522 28.4196 118.887 56.3024 94.0657L83.4296 93.9375Z" fill="#D7AB81"/>
<path fill-rule="evenodd" clip-rule="evenodd" d="M42.0144 178.223L33.9517 181.179C16.9504 161.86 10.2864 145.92 11.5015 137.799C12.3115 132.384 26.8719 117.774 55.1827 93.9671L84.0078 93.967C83.0243 121.882 30.662 142.581 29.9616 143.771C29.2613 144.96 36.1537 156.611 42.0144 178.223Z" fill="#2F3676"/>
<path fill-rule="evenodd" clip-rule="evenodd" d="M45.1309 183.493C46.139 184.68 46.7663 185.614 47.013 186.297C47.3129 187.127 47.6133 188.388 47.9142 190.081C46.9582 190.432 38.3661 193.581 22.1379 199.53C20.662 197.545 20.6136 196.199 21.9925 195.493C23.3714 194.786 24.5122 194.186 25.415 193.693L35.4516 183.922C35.6448 183.734 35.9527 183.739 36.1393 183.934C36.1425 183.937 36.1457 183.94 36.1488 183.944L37.5988 185.543C39.1617 185.681 40.3608 185.597 41.196 185.291C41.8747 185.042 42.7121 184.422 43.7084 183.432C44.0907 183.052 44.7066 183.056 45.084 183.441C45.1002 183.458 45.1159 183.475 45.1309 183.493Z" fill="#E4E4E4"/>
<path fill-rule="evenodd" clip-rule="evenodd" d="M76.934 93.9375L102.1 154.784L126.835 206.225H120.999L57.1527 93.9375H76.934Z" fill="#EBB786"/>
<path fill-rule="evenodd" clip-rule="evenodd" d="M127.184 203.85C127.728 205.313 128 206.407 128 207.133C128 208.017 127.854 209.305 127.562 211C126.544 211 117.401 211 100.131 211C99.4183 208.627 99.8297 207.345 101.366 207.156C102.901 206.967 104.177 206.796 105.193 206.644L117.942 200.919C118.188 200.809 118.475 200.92 118.585 201.167C118.587 201.171 118.588 201.176 118.59 201.18L119.41 203.182C120.831 203.85 121.987 204.184 122.876 204.184C123.598 204.184 124.595 203.891 125.868 203.303C126.356 203.078 126.933 203.293 127.157 203.785C127.167 203.806 127.176 203.828 127.184 203.85Z" fill="#E4E4E4"/>
<path fill-rule="evenodd" clip-rule="evenodd" d="M124.601 195.538L111.634 197.987C101.608 183.143 59.649 122.273 55.0486 93.9375H83.9159C99.2791 114.422 115.044 180.448 124.601 195.538Z" fill="#5C63AB"/>
<path fill-rule="evenodd" clip-rule="evenodd" d="M49.8382 61.911C43.574 63.4785 33.0694 61.6299 18.3243 56.3653C14.6669 63.9574 12.9762 69.37 13.2522 72.6031C25.9013 79.2329 36.7426 82.1888 45.6745 82.3839C45.3906 87.7017 46.0357 92.7617 48.2028 97.3852C52.6578 106.89 78.7446 98.0875 87.5158 99.8201C93.0085 81.9212 82.3881 74.6471 82.3796 63.1944C82.3702 50.6524 72.3336 31.3473 70.8569 31.3473H57.3903C56.6473 40.9258 52.9074 51.4821 49.8382 61.911Z" fill="#031725"/>
</svg>
